/home/minht/3dpredictsim_tutorial/predsim_tutorial/Results/Case_13/GRF.mot
version=1
nRows=20
nColumns=19
inDegrees=yes
endheader 
time	r_ground_force_vx	r_ground_force_vy	r_ground_force_vz	r_ground_force_px	r_ground_force_py	r_ground_force_pz	l_ground_force_vx	l_ground_force_vy	l_ground_force_vz	l_ground_force_px	l_ground_force_py	l_ground_force_pz	r_ground_torque_x	r_ground_torque_y	r_ground_torque_z	l_ground_torque_x	l_ground_torque_y	l_ground_torque_z	
          1.01298592	         -1.60254394	        121.16560247	         38.48628389	          0.36741428	          0.00000000	          0.09219009	        -66.14234721	        794.21823267	          3.61693936	          0.73212026	          0.00000000	         -0.08119582	          0.00000000	          0.40306226	          0.00000000	          0.00000000	         -0.21920357	          0.00000000	
          1.02833420	         -1.43404340	        106.54272450	         38.27370715	          0.36972366	          0.00000000	          0.09058381	        -61.73818033	        793.49770217	          4.57849188	          0.73309373	          0.00000000	         -0.08144748	          0.00000000	          0.25760477	          0.00000000	          0.00000000	         -0.30580422	          0.00000000	
          1.04368247	         -2.38223441	         90.26228928	         36.68911015	          0.37204190	          0.00000000	          0.08912493	        -57.65384850	        797.53667262	          5.52734427	          0.73396092	          0.00000000	         -0.08176965	          0.00000000	          0.13415207	          0.00000000	          0.00000000	         -0.57800968	          0.00000000	
          1.05903074	         -3.38050433	         73.53534320	         33.09998198	          0.37450681	          0.00000000	          0.08761476	        -53.48489432	        804.83009801	          6.51655369	          0.73466827	          0.00000000	         -0.08216455	          0.00000000	          0.04142734	          0.00000000	          0.00000000	         -0.97481894	          0.00000000	
          1.07437901	         -8.82579321	         51.71410924	         25.92750646	          0.37713293	          0.00000000	          0.08584043	        -49.10196226	        816.04556027	          7.88077161	          0.73514360	          0.00000000	         -0.08262407	          0.00000000	         -0.02278992	          0.00000000	          0.00000000	         -1.44826159	          0.00000000	
          1.08972728	          0.00000000	          0.00000000	          0.00000000	          0.00000000	          0.00000000	          0.00000000	        -43.88985108	        830.22036713	          9.65835521	          0.73528486	          0.00000000	         -0.08314625	          0.00000000	          0.00000000	          0.00000000	          0.00000000	         -1.97045846	          0.00000000	
          1.10507555	          0.00000000	          0.00000000	          0.00000000	          0.00000000	          0.00000000	          0.00000000	        -37.51242875	        842.93065571	         11.07514982	          0.73521135	          0.00000000	         -0.08369497	          0.00000000	          0.00000000	          0.00000000	          0.00000000	         -2.51664339	          0.00000000	
          1.12042382	          0.00000000	          0.00000000	          0.00000000	          0.00000000	          0.00000000	          0.00000000	        -30.65517393	        848.50880843	         12.55544364	          0.73505830	          0.00000000	         -0.08421083	          0.00000000	          0.00000000	          0.00000000	          0.00000000	         -2.88905465	          0.00000000	
          1.13577210	          0.00000000	          0.00000000	          0.00000000	          0.00000000	          0.00000000	          0.00000000	        -24.16428854	        848.75459504	         13.73476938	          0.73492175	          0.00000000	         -0.08467044	          0.00000000	          0.00000000	          0.00000000	          0.00000000	         -3.17657202	          0.00000000	
          1.15112037	          0.00000000	          0.00000000	          0.00000000	          0.00000000	          0.00000000	          0.00000000	        -18.16746726	        847.38265783	         14.89275646	          0.73480638	          0.00000000	         -0.08507311	          0.00000000	          0.00000000	          0.00000000	          0.00000000	         -3.43207536	          0.00000000	
          1.16646864	          0.00000000	          0.00000000	          0.00000000	          0.00000000	          0.00000000	          0.00000000	        -12.58408962	        846.54528756	         15.92046788	          0.73468878	          0.00000000	         -0.08543261	          0.00000000	          0.00000000	          0.00000000	          0.00000000	         -3.70245843	          0.00000000	
          1.18181691	          0.00000000	          0.00000000	          0.00000000	          0.00000000	          0.00000000	          0.00000000	         -7.42483649	        847.20730280	         16.92548793	          0.73457669	          0.00000000	         -0.08575377	          0.00000000	          0.00000000	          0.00000000	          0.00000000	         -3.99667773	          0.00000000	
          1.19716518	          0.00000000	          0.00000000	          0.00000000	          0.00000000	          0.00000000	          0.00000000	         -2.78322892	        849.80216183	         17.86843510	          0.73448322	          0.00000000	         -0.08604229	          0.00000000	          0.00000000	          0.00000000	          0.00000000	         -4.32596679	          0.00000000	
          1.21251345	          0.00000000	          0.00000000	          0.00000000	          0.00000000	          0.00000000	          0.00000000	          1.68219264	        854.25587377	         18.82728265	          0.73446769	          0.00000000	         -0.08629760	          0.00000000	          0.00000000	          0.00000000	          0.00000000	         -4.65873324	          0.00000000	
          1.22786173	          0.00000000	          0.00000000	          0.00000000	          0.00000000	          0.00000000	          0.00000000	          6.22989845	        859.88238056	         19.80288471	          0.73451957	          0.00000000	         -0.08652718	          0.00000000	          0.00000000	          0.00000000	          0.00000000	         -4.97126401	          0.00000000	
          1.24321000	          0.00000000	          0.00000000	          0.00000000	          0.00000000	          0.00000000	          0.00000000	         10.95162300	        866.23070759	         20.76992432	          0.73463429	          0.00000000	         -0.08673419	          0.00000000	          0.00000000	          0.00000000	          0.00000000	         -5.25673110	          0.00000000	
          1.25855827	          0.00000000	          0.00000000	          0.00000000	          0.00000000	          0.00000000	          0.00000000	         16.29675678	        872.73883789	         21.75648175	          0.73484182	          0.00000000	         -0.08691889	          0.00000000	          0.00000000	          0.00000000	          0.00000000	         -5.51774748	          0.00000000	
          1.27390654	          0.00000000	          0.00000000	          0.00000000	          0.00000000	          0.00000000	          0.00000000	         21.15583677	        879.19445491	         22.54306268	          0.73510385	          0.00000000	         -0.08708846	          0.00000000	          0.00000000	          0.00000000	          0.00000000	         -5.75207822	          0.00000000	
          1.28925481	          0.00000000	          0.00000000	          0.00000000	          0.00000000	          0.00000000	          0.00000000	         25.72420058	        886.60864185	         23.25675585	          0.73555203	          0.00000000	         -0.08722885	          0.00000000	          0.00000000	          0.00000000	          0.00000000	         -5.96726358	          0.00000000	
          1.30460308	          0.00000000	          0.00000000	          0.00000000	          0.00000000	          0.00000000	          0.00000000	         29.71993417	        894.43771767	         23.87895957	          0.73618293	          0.00000000	         -0.08734344	          0.00000000	          0.00000000	          0.00000000	          0.00000000	         -6.16826935	          0.00000000	
